<?xml version="1.0" encoding="UTF-8"?><svg id="Layer_1" xmlns="http://www.w3.org/2000/svg" viewBox="0 0 20 20"><path id="Path_88" d="M10.31,0v5.77h5.77L10.31,0Z" style="fill:#6e6e6e; stroke-width:0px;"/><path id="Path_89" d="M9.16,18.16v-4.51c0-.96.77-1.73,1.73-1.73h2.64c.46,0,.9.18,1.22.51l1.32,1.32v-6.84h-6.34c-.32,0-.58-.26-.58-.58h0V0H2.82c-.32,0-.58.26-.58.58h0v17.3c0,.32.26.58.58.58h6.4c-.03-.09-.05-.19-.06-.29h0Z" style="fill:#6e6e6e; stroke-width:0px;"/><path id="Path_90" d="M18.1,20h-7.5c-.16,0-.29-.13-.29-.29v-4.32h7.78c.16,0,.29.13.29.29v4.04c0,.16-.13.29-.29.29h.01ZM14.93,14.23l-.98-.98c-.11-.11-.25-.17-.41-.17h-2.64c-.32,0-.58.26-.58.58h0v.58h4.61Z" style="fill:#6e6e6e; stroke-width:0px;"/></svg>