<?xml version="1.0" encoding="UTF-8"?><svg id="Layer_1" xmlns="http://www.w3.org/2000/svg" viewBox="0 0 18 18"><path d="M8.28,10.74c0-2.26,1.54-4.14,3.61-4.71-.06-1.4-.99-2.67-2.42-3.06-1.77-.49-3.6.54-4.1,2.31-.04.15-.07.31-.1.47-1.49-.4-3.03.49-3.43,1.98-.13.48-.13.97,0,1.45-.85-.15-1.67.42-1.82,1.29s.42,1.67,1.29,1.82c.09.02.18.03.27.03h6.97c-.17-.49-.28-1.02-.28-1.56h0Z" style="fill:#6e6e6e; stroke-width:0px;"/><path id="Path_67" d="M17.69,10.32h-1.02c-.07-.38-.22-.74-.43-1.05l.73-.73c.12-.12.12-.3,0-.41h0l-.44-.44c-.12-.12-.3-.12-.41,0h0l-.73.73c-.32-.22-.67-.36-1.05-.43v-1.02c0-.16-.13-.3-.3-.3h-.58c-.16,0-.3.13-.3.3v1.02c-.38.07-.73.22-1.05.43l-.73-.73c-.12-.12-.3-.12-.41,0h0l-.44.44c-.12.12-.12.3,0,.41h0l.73.73c-.22.32-.36.67-.43,1.05h-1.02c-.16,0-.3.13-.3.3v.58c0,.16.13.3.3.3h1.02c.07.38.22.74.43,1.05l-.73.73c-.12.12-.12.3,0,.41h0l.44.44c.12.12.3.12.41,0h0l.73-.73c.32.22.67.36,1.05.43v1.02c0,.16.13.3.3.3h.58c.16,0,.3-.13.3-.3h0v-1.02c.38-.07.73-.22,1.05-.43l.73.73c.12.12.3.12.41,0h0l.45-.44c.12-.12.12-.3,0-.41h0l-.73-.73c.22-.32.36-.67.43-1.05h1.02c.16,0,.3-.13.3-.3h0v-.58c0-.16-.13-.3-.3-.3h0ZM13.74,12.43c-.84,0-1.53-.68-1.53-1.53s.68-1.53,1.53-1.53,1.53.68,1.53,1.53h0c0,.84-.68,1.53-1.53,1.53h0Z" style="fill:#6e6e6e; stroke-width:0px;"/></svg>