<?xml version="1.0" encoding="UTF-8"?><svg id="Layer_1" xmlns="http://www.w3.org/2000/svg" viewBox="0 0 20 20"><path d="M9.2,11.94c0-2.51,1.71-4.61,4.02-5.24-.07-1.56-1.1-2.97-2.69-3.41-1.97-.55-4.01.6-4.56,2.57-.05.17-.08.34-.11.52-1.66-.45-3.37.54-3.82,2.2-.14.53-.14,1.08,0,1.61-.95-.17-1.86.47-2.03,1.43s.47,1.86,1.43,2.03c.1.02.2.03.3.03h7.76c-.19-.55-.31-1.13-.31-1.74h.01Z" style="fill:#6e6e6e; stroke-width:0px;"/><path id="Path_67" d="M19.67,11.47h-1.14c-.08-.42-.25-.82-.48-1.17l.81-.81c.13-.13.13-.33,0-.46h0l-.49-.49c-.13-.13-.33-.13-.46,0h0l-.81.81c-.36-.24-.75-.4-1.17-.48v-1.14c0-.18-.15-.33-.33-.33h-.65c-.18,0-.33.15-.33.33v1.14c-.42.08-.81.25-1.17.48l-.81-.81c-.13-.13-.33-.13-.46,0h0l-.49.49c-.13.13-.13.33,0,.46h0l.81.81c-.24.36-.4.75-.48,1.17h-1.14c-.18,0-.33.15-.33.33v.65c0,.18.15.33.33.33h1.14c.08.42.25.82.48,1.17l-.81.81c-.13.13-.13.33,0,.46h0l.49.49c.13.13.33.13.46,0h0l.81-.81c.36.24.75.4,1.17.48v1.14c0,.18.15.33.33.33h.65c.18,0,.33-.15.33-.33h0v-1.14c.42-.08.81-.25,1.17-.48l.81.81c.13.13.33.13.46,0h0l.5-.49c.13-.13.13-.33,0-.46h0l-.81-.81c.24-.36.4-.75.48-1.17h1.14c.18,0,.33-.15.33-.33h0v-.65c0-.18-.15-.33-.33-.33h-.01ZM15.27,13.82c-.94,0-1.7-.76-1.7-1.7s.76-1.7,1.7-1.7,1.7.76,1.7,1.7h0c0,.94-.76,1.7-1.7,1.7h0Z" style="fill:#6e6e6e; stroke-width:0px;"/></svg>