<?xml version="1.0" encoding="UTF-8"?><svg id="Layer_3" xmlns="http://www.w3.org/2000/svg" viewBox="0 0 20 20"><path d="M18.46,14.07h-1.26c-.09-.46-.27-.9-.53-1.29l.9-.9c.14-.14.14-.37,0-.51l-.54-.54c-.14-.14-.37-.14-.51,0l-.89.9c-.39-.26-.83-.44-1.29-.53v-1.26c0-.2-.16-.36-.36-.36h-.72c-.2,0-.36.16-.36.36h0v1.26c-.46.09-.9.27-1.29.53l-.9-.9c-.14-.14-.37-.14-.51,0l-.54.54c-.14.14-.14.37,0,.51l.9.9c-.26.39-.44.83-.53,1.29h-1.26c-.2,0-.36.16-.36.36h0v.72c0,.2.16.36.36.36h1.26c.09.46.27.9.53,1.29l-.9.9c-.14.14-.14.37,0,.51l.54.54c.14.14.37.14.51,0l.9-.9c.39.26.83.44,1.29.53v1.26c0,.2.16.36.36.36h.72c.2,0,.36-.16.36-.36v-1.26c.46-.09.9-.27,1.29-.53l.9.9c.14.14.37.14.51,0l.54-.54c.14-.14.14-.37,0-.51l-.9-.89c.26-.39.44-.83.53-1.29h1.26c.2,0,.36-.16.36-.36v-.72c0-.2-.16-.36-.36-.36h-.01ZM13.61,16.86c-1.14,0-2.07-.93-2.07-2.07s.93-2.07,2.07-2.07,2.07.93,2.07,2.07-.93,2.07-2.07,2.07h0Z" style="fill:#6e6e6e; stroke-width:0px;"/><polygon points="7.1 0 7.1 5.92 1.18 5.92 7.1 0" style="fill:#6e6e6e; stroke-width:0px;"/><path d="M7.4,14.79c0-3.43,2.78-6.21,6.21-6.21.6,0,1.2.11,1.77.29V.59c0-.33-.26-.59-.59-.59h-6.51v6.51c0,.33-.26.59-.59.59H1.18v11.24c0,.33.26.59.59.59h7.23c-1.03-1.13-1.61-2.61-1.61-4.14h.01Z" style="fill:#6e6e6e; stroke-width:0px;"/></svg>