<svg width="18" height="18" viewBox="0 0 18 18" fill="none" xmlns="http://www.w3.org/2000/svg">
<path fill-rule="evenodd" clip-rule="evenodd" d="M16.0002 6.11402V10.9996H12.7927L12.2324 11.9996H16.7502C16.8883 11.9996 17.0002 11.8877 17.0002 11.7496V6.07715L16.0002 6.11402Z" fill="#5258E4"/>
<path fill-rule="evenodd" clip-rule="evenodd" d="M12.9019 9.02643C12.7894 8.96344 12.6958 8.8786 12.6121 8.7854C12.572 8.74078 12.5327 8.69562 12.5001 8.64551C12.3872 8.47205 12.3178 8.27088 12.3101 8.05719L12.2587 6.63574L11.5636 7.87671C11.5382 7.92206 11.5028 7.9588 11.4721 7.9997C11.2637 8.27729 10.9467 8.45582 10.5944 8.46851L9.17285 8.5199L10.4138 9.21503C10.7667 9.41272 10.9911 9.78009 11.0056 10.1843L11.057 11.6058L11.7521 10.3648C11.9127 10.0783 12.187 9.88336 12.5001 9.80982C12.5485 9.79847 12.5974 9.79035 12.6474 9.78528C12.6725 9.78272 14.1428 9.72156 14.1428 9.72156L12.9019 9.02643Z" fill="#5258E4"/>
<path fill-rule="evenodd" clip-rule="evenodd" d="M2 13V6H6V5H1.25C1.11194 5 1 5.11188 1 5.25V13.75C1 13.8881 1.11194 14 1.25 14H11.75C11.8881 14 12 13.8881 12 13.75V13H2Z" fill="#5258E4"/>
<path fill-rule="evenodd" clip-rule="evenodd" d="M14 13V16H4V15H3V16.75C3 16.8881 3.11194 17 3.25 17H14.75C14.8881 17 15 16.8881 15 16.75V13H14Z" fill="#5258E4"/>
<path fill-rule="evenodd" clip-rule="evenodd" d="M17.8237 4.81275L16.1054 3.84003C15.6195 3.56263 15.3108 3.04718 15.2905 2.47998L15.238 1.00006L15.2198 0.485352L14.937 1.00006L14.2629 2.22668C13.9907 2.72186 13.4851 3.03662 12.9286 3.05712L10.9717 3.12926L12.6802 4.1046C12.8864 4.2224 13.052 4.38957 13.1859 4.5789C13.3674 4.83549 13.4833 5.13823 13.4949 5.46464L13.5493 7.00004L13.5657 7.45927L13.818 7.00004L14.5225 5.71794C14.7947 5.22276 15.3004 4.908 15.8569 4.8875L17.8237 4.81275Z" fill="#5258E4"/>
<path fill-rule="evenodd" clip-rule="evenodd" d="M9.78467 11H8V2H12.8312C12.8311 2.00006 12.8313 1.99994 12.8312 2C12.8823 1.97937 12.9299 1.95087 12.9745 1.91992C13.0335 1.87274 13.0926 1.82446 13.1301 1.75616L13.5452 1H7C7.11194 1 7 1.11194 7 1.25V11.75C7 11.8881 7.11194 12 7.25 12H9.82031L9.78467 11Z" fill="#5258E4"/>
</svg>
