<svg width="36" height="25" viewBox="0 0 36 25" fill="none" xmlns="http://www.w3.org/2000/svg">
<mask id="mask0_2725_121418" style="mask-type:alpha" maskUnits="userSpaceOnUse" x="10" y="7" width="18" height="18">
<g clip-path="url(#clip0_2725_121418)">
<path fill-rule="evenodd" clip-rule="evenodd" d="M20.536 11.1221L20.5874 12.5435C20.602 12.9478 20.8263 13.3151 21.1792 13.5128L22.4202 14.2079L20.9988 14.2593C20.5945 14.2739 20.2272 14.4982 20.0295 14.8511L19.3344 16.0921L19.283 14.6706C19.2684 14.2664 19.0441 13.8991 18.6912 13.7014L17.4502 13.0063L18.8717 12.9549C19.2759 12.9402 19.6432 12.7159 19.8409 12.363L20.536 11.1221Z" fill="#222222"/>
<path fill-rule="evenodd" clip-rule="evenodd" d="M23.3018 14.7021C23.2256 14.7021 23.1474 14.6934 23.0703 14.6748C23.0449 14.6687 23.0247 14.6532 23 14.6452V23H13V12.9393H16.4394C16.7153 12.9393 16.9394 12.7155 16.9394 12.4393V9H19.7046C19.706 8.94006 19.6991 8.87415 19.708 8.82092C19.7661 8.47473 19.9697 8.1803 20.2219 8H16.6327C16.3674 8 16.1132 8.10535 15.9255 8.29285L12.293 11.9255C12.1053 12.113 12 12.3674 12 12.6327V23.5C12 23.7762 12.2239 24 12.5 24H23.5C23.7761 24 24 23.7762 24 23.5V14.4144C23.814 14.5968 23.5635 14.7021 23.3018 14.7021ZM16 9.63281V12H13.6328L16 9.63281Z" fill="#222222"/>
<path fill-rule="evenodd" clip-rule="evenodd" d="M24.9561 6.72852L25.0269 8.72311C25.047 9.29031 25.3558 9.80579 25.8416 10.0832L27.55 11.0585L25.5931 11.1307C25.0367 11.1512 24.5309 11.4659 24.2588 11.9611L23.3019 13.7024L23.2311 11.7078C23.211 11.1406 22.9022 10.6251 22.4164 10.3478L20.708 9.37239L22.6649 9.30027C23.2213 9.27976 23.7271 8.96502 23.9992 8.46984L24.9561 6.72852Z" fill="#222222"/>
</g>
</mask>
<g mask="url(#mask0_2725_121418)">
<rect x="10" y="7" width="18" height="18" fill="#222222"/>
</g>
<defs>
<clipPath id="clip0_2725_121418">
<rect width="18" height="18" fill="white" transform="translate(10 7)"/>
</clipPath>
</defs>
</svg>
