<svg width="22" height="22" viewBox="0 0 22 22" fill="none" xmlns="http://www.w3.org/2000/svg">
<mask id="mask0_585_2991" style="mask-type:alpha" maskUnits="userSpaceOnUse" x="0" y="0" width="22" height="22">
<path fill-rule="evenodd" clip-rule="evenodd" d="M20.1664 3.66667L11.4085 3.67122L9.38882 1.59268C9.15862 1.35583 8.84261 1.22223 8.5123 1.22223H2.44445C1.76948 1.22223 1.22223 1.76941 1.22223 2.44445V16.5C1.22223 16.8375 1.49586 17.1111 1.83334 17.1111H9.83492V15.8889H2.44445V4.8889H19.5556V9.77778H20.7778V4.27778C20.7778 3.94015 20.504 3.66645 20.1664 3.66667Z" fill="#222222"/>
<path fill-rule="evenodd" clip-rule="evenodd" d="M12.2222 18.3333V12.2222H19.5556V11.6111C19.5556 11.2736 19.2819 11 18.9444 11H11.6111C11.2736 11 11 11.2736 11 11.6111V18.9444C11 19.2819 11.2736 19.5556 11.6111 19.5556H12.2222V18.3333Z" fill="#222222"/>
<path fill-rule="evenodd" clip-rule="evenodd" d="M21.3889 13.4445H14.0556C13.7181 13.4445 13.4445 13.7181 13.4445 14.0556V21.3889C13.4445 21.7264 13.7181 22 14.0556 22H21.3889C21.7264 22 22 21.7264 22 21.3889V14.0556C22 13.7181 21.7264 13.4445 21.3889 13.4445ZM14.6667 14.6667H20.7778V20.7778H14.6667V14.6667Z" fill="#222222"/>
</mask>
<g mask="url(#mask0_585_2991)">
<rect width="22" height="22" fill="#222222"/>
</g>
</svg>
