<svg width="48" height="48" viewBox="0 0 48 48" fill="none" xmlns="http://www.w3.org/2000/svg">
<mask id="mask0_564_5715" style="mask-type:alpha" maskUnits="userSpaceOnUse" x="13" y="13" width="22" height="22">
<path fill-rule="evenodd" clip-rule="evenodd" d="M21 14V19H16L21 14Z" fill="#222222"/>
<path fill-rule="evenodd" clip-rule="evenodd" d="M20.35 26.5C20.3507 25.5649 20.5645 24.6422 20.9751 23.802C21.3857 22.9618 21.9824 22.2263 22.7199 21.6512C23.4573 21.0762 24.3161 20.6767 25.231 20.4832C26.1459 20.2897 27.0929 20.3073 28 20.5345V14.5C28 14.3674 27.9473 14.2402 27.8536 14.1464C27.7598 14.0527 27.6326 14 27.5 14H22V19.5C22 19.6326 21.9473 19.7598 21.8536 19.8536C21.7598 19.9473 21.6326 20 21.5 20H16V29.5C16 29.6326 16.0527 29.7598 16.1464 29.8536C16.2402 29.9473 16.3674 30 16.5 30H21.443C20.7295 28.9724 20.3481 27.751 20.35 26.5Z" fill="#222222"/>
<path fill-rule="evenodd" clip-rule="evenodd" d="M26.5 22.0498C25.6199 22.0498 24.7595 22.3108 24.0277 22.7998C23.2959 23.2887 22.7255 23.9837 22.3887 24.7969C22.0519 25.61 21.9638 26.5047 22.1355 27.368C22.3072 28.2312 22.731 29.0241 23.3534 29.6464C23.9757 30.2688 24.7686 30.6926 25.6318 30.8643C26.4951 31.036 27.3898 30.9479 28.2029 30.6111C29.0161 30.2743 29.7111 29.7039 30.2 28.9721C30.689 28.2403 30.95 27.3799 30.95 26.4998C30.95 25.3196 30.4812 24.1877 29.6466 23.3532C28.8121 22.5186 27.6802 22.0498 26.5 22.0498ZM29 26.7498C29 26.8161 28.9737 26.8797 28.9268 26.9266C28.8799 26.9735 28.8163 26.9998 28.75 26.9998H27V28.7498C27 28.8161 26.9737 28.8797 26.9268 28.9266C26.8799 28.9735 26.8163 28.9998 26.75 28.9998H26.25C26.1837 28.9998 26.1201 28.9735 26.0732 28.9266C26.0263 28.8797 26 28.8161 26 28.7498V26.9998H24.25C24.1837 26.9998 24.1201 26.9735 24.0732 26.9266C24.0263 26.8797 24 26.8161 24 26.7498V26.2498C24 26.1835 24.0263 26.1199 24.0732 26.073C24.1201 26.0261 24.1837 25.9998 24.25 25.9998H26V24.2498C26 24.1835 26.0263 24.1199 26.0732 24.073C26.1201 24.0261 26.1837 23.9998 26.25 23.9998H26.75C26.8163 23.9998 26.8799 24.0261 26.9268 24.073C26.9737 24.1199 27 24.1835 27 24.2498V25.9998H28.75C28.8163 25.9998 28.8799 26.0261 28.9268 26.073C28.9737 26.1199 29 26.1835 29 26.2498V26.7498Z" fill="#222222"/>
</mask>
<g mask="url(#mask0_564_5715)">
<rect x="13" y="13" width="22" height="22" fill="#222222"/>
</g>
</svg>
